<?xml version="1.0" encoding="UTF-8"?>
<svg width="21px" height="31px" viewBox="0 0 21 31" version="1.1" xmlns="http://www.w3.org/2000/svg" xmlns:xlink="http://www.w3.org/1999/xlink">
    <!-- Generator: Sketch 50.2 (55047) - http://www.bohemiancoding.com/sketch -->
    <title>icon-电话</title>
    <desc>Created with Sketch.</desc>
    <defs></defs>
    <g id="Page-1" stroke="none" stroke-width="1" fill="none" fill-rule="evenodd" fill-opacity="0.5" opacity="0.5">
        <g id="管理员申请-copy-3" transform="translate(-169.000000, -668.000000)" fill="#FFFFFF" fill-rule="nonzero">
            <path d="M189,675 L171,675 L171,692 L189,692 L189,675 Z M189,674 L189,672 C188.998214,671.081183 187.957039,670.000002 187,670 L173,670 C172.041175,669.998157 171,671.081183 171,672 L171,674 L189,674 Z M189,694 L171,694 L171,696 C171,696.976906 172.041175,698 173,698 L187,698 C187.958825,698 189,696.976906 189,696 L189,694 Z M186,699 L173,699 C170.753971,698.990507 168.994182,697.251899 169,695 L169,672 C168.994182,669.748101 170.753971,668.009493 173,668 L186,668 C188.246029,668.009493 190.005818,669.748101 190,672 L190,695 C190.005818,697.251899 188.246029,698.990507 186,699 Z M181,672 L179,672 C178.57759,671.998883 178.376845,671.892899 178,672 C178.081561,671.517825 177.999117,671.264098 178,671 C178.000007,670.449367 178.351765,670 179,670 L181,670 C181.646567,670 182,670.449367 182,671 C182,671.552743 181.648242,672 181,672 Z M179,696 C178.44639,695.997511 177.999161,695.550281 178,695 C178.000001,694.447289 178.448486,694 179,694 C179.551515,694 179.999999,694.448795 180,695 C180.000839,695.550281 179.55361,695.997511 179,696 Z M180,695 C179.223858,695 179,695.223858 179,696 C179,695.776142 179.223858,696 180,696 C179.776142,696 180,695.776142 180,696 C180,695.223858 179.776142,695 180,695 Z" id="icon-电话"></path>
        </g>
    </g>
</svg>