<?xml version="1.0" encoding="UTF-8"?>
<svg width="77px" height="77px" viewBox="0 0 77 77" version="1.1" xmlns="http://www.w3.org/2000/svg" xmlns:xlink="http://www.w3.org/1999/xlink">
    <!-- Generator: Sketch 50.2 (55047) - http://www.bohemiancoding.com/sketch -->
    <title>icon-申请头像</title>
    <desc>Created with Sketch.</desc>
    <defs></defs>
    <g id="Page-1" stroke="none" stroke-width="1" fill="none" fill-rule="evenodd">
        <g id="管理员申请-copy-3" transform="translate(-338.000000, -388.000000)" fill="#FFFFFF" fill-rule="nonzero">
            <path d="M376.5,388 C355.237037,388 338,405.237037 338,426.5 C338,447.762963 355.237037,465 376.5,465 C397.762963,465 415,447.762963 415,426.5 C415,416.289165 410.943762,406.496539 403.723611,399.276389 C396.503461,392.056238 386.710835,388 376.5,388 Z M376.407344,390.717839 C390.510842,390.671732 403.323945,398.921784 409.121221,411.781524 C414.918497,424.641265 412.616831,439.708087 403.244704,450.249501 L401.45042,449.582911 C396.443514,447.771152 391.393887,446.09613 386.301538,444.557844 L386.096477,444.557844 C386.037232,444.0811 386.037232,443.598854 386.096477,443.12211 C386.1701,441.832262 386.519748,440.57326 387.121782,439.430224 C387.931058,437.751186 388.492287,435.963506 388.787903,434.123138 C390.040932,432.475659 390.876444,430.549175 391.223002,428.508395 C391.744968,426.935382 391.744968,425.235807 391.223002,423.662794 L391.223002,423.432052 C391.166342,421.290741 391.34687,419.149738 391.761288,417.048165 C392.130129,413.818257 391.146685,410.579623 389.044229,408.100469 C386.298502,404.984176 382.328453,403.223496 378.175996,403.280507 L375.048815,403.280507 C371.111641,403.376036 367.393905,405.114449 364.795765,408.074831 C362.693309,410.553985 361.709865,413.792619 362.078706,417.022527 C362.484614,419.116637 362.665072,421.248214 362.616991,423.380775 C362.622619,423.466143 362.622619,423.551789 362.616991,423.637156 C362.077965,425.216149 362.077965,426.929402 362.616991,428.508395 C362.96355,430.549175 363.799061,432.475659 365.052091,434.123138 C365.251442,435.947578 365.708853,437.73445 366.41062,439.430224 C366.895019,440.64306 367.113545,441.94575 367.051436,443.250301 L367.051436,444.660396 L366.872007,444.660396 C361.745482,446.147406 356.678766,447.856612 351.67186,449.788016 L349.826311,450.505882 C340.434362,439.976519 338.08185,424.919893 343.814118,412.026448 C349.546386,399.133003 362.299797,390.795153 376.407344,390.717839 Z" id="icon-申请头像"></path>
        </g>
    </g>
</svg>