<?xml version="1.0" encoding="UTF-8"?>
<svg width="27px" height="25px" viewBox="0 0 27 25" version="1.1" xmlns="http://www.w3.org/2000/svg" xmlns:xlink="http://www.w3.org/1999/xlink">
    <!-- Generator: Sketch 50.2 (55047) - http://www.bohemiancoding.com/sketch -->
    <title>icon-姓名</title>
    <desc>Created with Sketch.</desc>
    <defs></defs>
    <g id="Page-1" stroke="none" stroke-width="1" fill="none" fill-rule="evenodd" opacity="0.5">
        <g id="管理员申请-copy-3" transform="translate(-167.000000, -587.000000)" fill="#FFFFFF" fill-rule="nonzero">
            <g id="icon-姓名" transform="translate(167.000000, 587.000000)">
                <path d="M16,20.8333333 C16,21.2935706 16.378841,21.6666667 16.846165,21.6666667 L26.1539798,21.6666667 C26.6212473,21.6665879 27,21.2935149 27,20.8333333 C27,20.3731517 26.6212473,20.0000788 26.1539798,20 L16.846165,20 C16.378841,20 16,20.373096 16,20.8333333 Z M26.1539798,23.3333333 L16.846165,23.3333333 C16.3788975,23.3334121 16.0001448,23.7064851 16.0001448,24.1666667 C16.0001448,24.6268483 16.3788975,24.9999212 16.846165,25 L26.1539798,25 C26.6212473,24.9999212 27,24.6268483 27,24.1666667 C27,23.7064851 26.6212473,23.3334121 26.1539798,23.3333333 Z" id="Shape"></path>
                <path d="M21.4383197,18.5003909 C21.577782,18.7815613 21.8620098,18.9594214 22.1732238,18.9602688 C22.4844378,18.9611161 22.7696099,18.7848064 22.9105693,18.5043996 C23.0515287,18.2239928 23.0242573,17.8872675 22.8400559,17.6337574 C21.2851456,15.0520178 18.8518181,13.1321016 15.9962847,12.2339637 C18.4297017,10.6144228 19.523471,7.57325297 18.6869928,4.75258655 C17.8505147,1.93192012 15.2819587,1.80305905e-16 12.3682613,0 C9.45456398,-1.80305905e-16 6.88600802,1.93192012 6.04952985,4.75258655 C5.21305167,7.57325297 6.30682096,10.6144228 8.740238,12.2339637 C3.55503173,13.8474587 0.0126215415,18.6838427 0,24.1668411 C7.79377901e-05,24.6270051 0.369219057,25 0.824550755,25 C1.27988245,25 1.64902357,24.6270051 1.64910151,24.1668411 C1.69564042,19.3608197 4.87001477,15.1604046 9.44567755,13.8502081 C14.0213403,12.5400115 18.9041421,14.4333325 21.4383197,18.5003909 Z M7.42095681,6.66750963 C7.42095681,3.90619137 9.63594049,1.66770063 12.3682613,1.66770063 C15.1005822,1.66770063 17.3155659,3.90619137 17.3155659,6.66750963 C17.3155659,9.42882789 15.1005822,11.6673186 12.3682613,11.6673186 C9.63594049,11.6673186 7.42095681,9.42882789 7.42095681,6.66750963 Z" id="Shape" fill-opacity="0.996942935"></path>
            </g>
        </g>
    </g>
</svg>